<?xml version="1.0" standalone="no"?>
<!DOCTYPE svg PUBLIC "-//W3C//DTD SVG 20010904//EN"
 "http://www.w3.org/TR/2001/REC-SVG-20010904/DTD/svg10.dtd">
<svg version="1.0" xmlns="http://www.w3.org/2000/svg"
 width="300.000000pt" height="283.000000pt" viewBox="0 0 300.000000 283.000000"
 preserveAspectRatio="xMidYMid meet">
<metadata>
Created by potrace 1.10, written by Peter Selinger 2001-2011
</metadata>
<g transform="translate(0.000000,283.000000) scale(0.100000,-0.100000)"
fill="#000000" stroke="none">
<path d="M1771 2403 c-28 -32 -68 -91 -89 -133 -20 -41 -38 -77 -39 -79 -1 -2
-10 0 -20 4 -16 6 -16 8 6 26 22 18 22 19 3 19 -12 0 -24 -4 -27 -10 -12 -20
-24 -9 -39 38 -24 70 -42 93 -70 86 -19 -4 -29 2 -51 30 -15 20 -32 36 -37 36
-20 0 -1 -89 35 -164 26 -55 33 -78 24 -83 -22 -15 -59 -94 -61 -132 -1 -25
-16 -59 -48 -106 -63 -97 -72 -115 -56 -115 20 0 623 204 626 213 2 4 17 7 34
7 36 0 102 60 96 87 -3 14 -13 18 -47 16 -52 -2 -90 -25 -104 -64 -9 -23 -16
-28 -32 -23 -29 9 -28 8 -6 53 23 45 52 65 81 56 43 -14 134 54 115 86 -14 21
-88 3 -113 -28 -40 -50 -57 -64 -60 -53 -7 20 42 105 63 108 53 8 95 53 95
102 0 14 -6 20 -24 20 -32 0 -86 -52 -86 -83 0 -13 -6 -30 -14 -37 -13 -10
-16 -2 -22 49 -3 34 -11 61 -16 61 -5 0 -6 -19 -2 -46 5 -34 4 -45 -5 -40 -6
4 -11 18 -11 32 0 13 -9 33 -20 44 -16 16 -18 25 -10 40 33 61 -8 51 -69 -17z
m57 -30 c16 -36 15 -53 -3 -53 -17 0 -49 56 -40 70 11 18 30 10 43 -17z m-321
-67 c1 -1 9 -18 17 -38 13 -30 13 -37 2 -41 -19 -8 -43 12 -56 46 -15 42 -13
49 13 41 12 -3 23 -7 24 -8z m284 -2 c19 -17 16 -72 -5 -87 -7 -5 -2 -15 16
-30 21 -17 30 -35 34 -71 6 -44 5 -49 -10 -43 -10 4 -22 7 -27 7 -5 0 -9 17
-9 39 0 23 -6 44 -15 51 -9 7 -14 19 -11 26 3 7 -1 26 -9 41 -33 62 -8 107 36
67z m89 -23 c12 -30 5 -89 -18 -151 -9 -23 -9 -22 -17 15 -4 22 -7 54 -6 70 1
17 -3 36 -8 44 -10 16 7 51 25 51 6 0 17 -13 24 -29z m-128 -119 c5 -29 12
-61 17 -70 8 -14 8 -45 1 -97 -1 -5 -5 -1 -10 10 -7 15 -9 16 -9 4 -1 -22 -31
-48 -31 -28 0 11 -2 11 -8 2 -10 -17 -240 -95 -254 -87 -5 4 -14 1 -18 -5 -8
-14 -79 -33 -92 -25 -8 5 21 53 49 82 6 7 15 34 18 60 10 69 24 109 41 116 8
3 13 10 9 16 -3 5 3 15 14 22 15 9 17 16 9 25 -7 9 -6 14 3 18 22 8 85 1 100
-11 23 -18 48 -24 55 -13 3 6 17 9 29 6 17 -3 25 1 29 15 3 13 11 18 23 16 13
-2 20 -17 25 -56z m246 -64 c-3 -7 -15 -15 -28 -16 -21 -3 -22 -2 -11 12 16
19 44 21 39 4z"/>
<path d="M1287 2426 c-4 -10 -7 -26 -7 -36 0 -11 -18 -33 -39 -51 -39 -31 -70
-88 -72 -132 -1 -21 -1 -20 -12 5 -16 34 -47 68 -62 68 -9 0 -5 -18 11 -57 31
-76 31 -106 -1 -127 -24 -16 -25 -16 -45 24 -23 45 -64 75 -116 84 -21 4 -41
18 -55 37 -12 17 -23 28 -25 26 -3 -2 1 -28 8 -57 8 -36 22 -63 44 -84 30 -30
64 -85 64 -104 0 -5 -10 -12 -21 -15 -17 -4 -33 7 -76 53 -56 61 -94 80 -160
80 -28 0 -33 -4 -33 -23 0 -30 48 -96 94 -132 29 -22 210 -94 239 -95 15 0 6
43 -13 68 -16 20 -19 34 -15 66 6 36 2 47 -29 91 -20 27 -32 51 -27 53 28 9
111 -64 111 -97 0 -23 64 -3 83 27 4 6 15 12 24 12 11 0 14 6 9 25 -8 33 37
122 69 137 28 13 43 5 27 -14 -18 -22 -83 -141 -79 -145 3 -2 11 7 20 20 21
33 46 57 58 57 6 0 1 -12 -10 -26 -12 -15 -21 -35 -21 -45 0 -10 -5 -21 -10
-24 -7 -4 -7 -12 0 -25 5 -10 10 -34 10 -52 0 -37 -38 -126 -63 -147 -27 -21
-21 -28 44 -50 44 -14 61 -17 64 -8 4 15 22 142 31 222 8 76 19 105 39 105 9
0 13 5 10 11 -4 6 3 13 15 16 12 3 19 11 16 19 -3 8 6 15 25 19 17 4 28 12 26
18 -6 20 -35 19 -54 0 -12 -12 -34 -19 -62 -19 l-43 -1 7 31 c17 79 24 154 17
181 -7 24 -9 26 -15 11z m43 -271 c-7 -13 -16 -22 -20 -20 -4 3 -15 -4 -25
-15 -23 -25 -45 -26 -38 -2 5 19 83 76 91 67 3 -3 -1 -16 -8 -30z m-469 -120
c32 -30 66 -55 77 -55 18 0 39 -18 56 -48 6 -9 -3 -8 -31 3 -21 10 -51 21 -66
25 -59 18 -157 100 -157 132 0 26 66 -5 121 -57z m421 31 c7 4 8 -9 4 -37 -4
-24 -9 -66 -12 -94 -8 -93 -11 -98 -46 -91 -17 3 -34 8 -37 11 -2 3 8 31 23
63 15 31 29 76 31 99 4 47 16 75 23 55 2 -7 8 -9 14 -6z"/>
<path d="M1090 2049 c-12 -8 -10 -9 9 -4 17 5 22 4 16 -5 -6 -9 -4 -11 5 -5 7
4 16 2 20 -5 4 -7 14 -10 21 -8 9 3 2 11 -18 21 -38 20 -34 19 -53 6z"/>
<path d="M1919 1988 c0 -13 0 -44 1 -69 l1 -47 -113 -37 c-62 -21 -119 -40
-125 -43 -25 -8 -13 15 19 38 18 13 43 23 55 22 29 -2 39 16 20 35 -24 24 -66
8 -114 -44 -24 -25 -43 -52 -43 -59 0 -17 20 -29 29 -18 5 8 99 41 226 79 l40
12 3 -88 c2 -87 2 -89 -25 -104 -28 -16 -28 -16 -3 -11 25 5 25 4 27 -59 1
-39 -3 -67 -10 -73 -7 -6 -95 -38 -197 -72 -102 -34 -194 -67 -205 -73 -11 -6
-24 -10 -29 -8 -15 4 -96 -30 -96 -40 0 -6 -4 -8 -9 -5 -9 6 -63 -8 -93 -24
-11 -6 -60 8 -165 47 -81 30 -158 55 -170 55 -13 0 -23 4 -23 8 0 4 -18 10
-40 14 -23 3 -43 12 -45 19 -7 22 -11 137 -4 137 3 0 71 -22 151 -49 127 -44
253 -81 273 -81 3 0 3 5 0 10 -3 6 -16 10 -28 10 -12 0 -107 29 -211 64 l-189
63 -1 47 c0 25 2 46 6 46 3 0 5 16 2 35 -2 21 0 35 6 35 6 0 91 -26 188 -59
175 -58 255 -79 237 -63 -6 5 -39 16 -75 26 -36 9 -132 40 -214 68 l-148 51 6
39 c4 27 3 38 -6 38 -10 0 -10 2 -1 8 13 8 6 62 -8 62 -6 0 -8 -107 -7 -252
l3 -251 180 -62 c100 -34 195 -70 212 -79 42 -21 78 -20 133 5 25 12 169 63
320 114 l275 92 1 176 c1 97 4 183 8 193 8 22 -4 144 -15 144 -5 0 -9 -10 -10
-22z"/>
<path d="M1840 1919 c0 -25 33 -22 38 4 2 12 -3 17 -17 17 -15 0 -21 -6 -21
-21z"/>
<path d="M1052 1891 c-10 -6 -5 -11 19 -20 40 -14 39 -14 39 5 0 11 -6 14 -21
9 -15 -5 -19 -4 -15 4 8 13 -3 14 -22 2z"/>
<path d="M857 1837 c-3 -8 -2 -20 3 -27 11 -18 42 -4 38 17 -4 22 -34 29 -41
10z"/>
<path d="M1475 1774 c-119 -62 -128 -191 -14 -225 52 -16 109 1 143 41 88 105
-11 246 -129 184z m58 -46 c2 -7 17 -13 33 -13 26 0 29 -4 32 -33 6 -64 -49
-110 -115 -97 -65 12 -80 79 -28 131 26 26 71 32 78 12z"/>
<path d="M1337 1756 c-8 -19 15 -37 32 -26 17 10 7 40 -13 40 -7 0 -16 -6 -19
-14z"/>
<path d="M1184 1745 c-4 -9 -2 -21 4 -27 15 -15 44 -1 40 19 -4 23 -36 29 -44
8z"/>
<path d="M1743 1730 c-13 -5 -23 -17 -23 -25 0 -14 8 -15 55 -10 65 9 69 0 20
-44 -43 -37 -79 -48 -116 -34 -22 9 -29 8 -33 -4 -4 -8 -4 -19 0 -24 3 -5 -2
-9 -10 -9 -8 0 -18 -4 -21 -10 -4 -6 4 -6 21 0 15 6 40 8 55 5 70 -16 162 43
167 107 3 28 -1 39 -17 47 -24 13 -67 13 -98 1z"/>
<path d="M850 1655 c-10 -11 -10 -19 -2 -27 15 -15 44 -2 40 19 -4 23 -22 27
-38 8z"/>
<path d="M1180 1570 c-18 -11 -4 -42 17 -38 10 2 19 10 21 19 4 19 -19 31 -38
19z"/>
<path d="M1360 1566 c-10 -13 -10 -20 -2 -28 16 -16 32 2 23 25 -6 17 -8 18
-21 3z"/>
<path d="M1857 1556 c-7 -18 1 -26 25 -26 13 0 18 6 16 17 -4 22 -34 29 -41 9z"/>
<path d="M1387 1493 c-37 -14 -66 -28 -63 -30 4 -5 156 47 156 53 0 8 -28 1
-93 -23z"/>
<path d="M851 1476 c-16 -19 -6 -36 20 -36 15 0 20 6 17 22 -4 27 -21 33 -37
14z"/>
<path d="M1181 1386 c-14 -17 -7 -36 14 -36 22 0 29 20 13 36 -13 13 -16 13
-27 0z"/>
<path d="M1356 1384 c-4 -10 -2 -22 3 -27 14 -14 43 0 39 20 -4 24 -34 28 -42
7z"/>
<path d="M1239 1204 c-10 -13 -10 -20 5 -44 10 -18 20 -66 25 -127 10 -115 30
-173 60 -173 23 0 28 19 9 38 -19 19 -3 24 42 12 49 -13 90 -6 90 16 0 16 -7
19 -60 28 -19 4 -42 11 -50 16 -13 9 -10 14 14 35 17 13 33 22 37 20 4 -3 12
2 19 10 10 12 10 18 0 30 -18 22 -28 19 -75 -19 l-42 -35 -7 86 c-4 59 -12 93
-23 105 -20 22 -27 22 -44 2z"/>
<path d="M1132 1171 c-7 -4 -10 -15 -7 -23 13 -34 89 -43 83 -10 -4 19 -60 43
-76 33z"/>
<path d="M1532 1150 l-33 -20 18 -33 c22 -43 31 -190 12 -213 -11 -14 -10 -18
6 -30 57 -42 219 66 196 130 -4 11 -24 32 -44 45 l-36 24 21 27 c11 15 18 36
16 46 -8 44 -100 58 -156 24z m118 -39 c0 -12 -54 -51 -69 -51 -6 0 -11 14
-11 30 0 28 2 30 40 30 22 0 40 -4 40 -9z m10 -116 c17 -9 30 -21 30 -29 0
-22 -70 -76 -99 -76 -7 0 -11 24 -11 60 0 58 1 60 25 60 15 0 39 -7 55 -15z"/>
<path d="M615 1143 c-78 -41 -113 -101 -94 -161 15 -48 45 -80 94 -103 52 -24
92 -24 133 1 l32 20 22 -25 c20 -23 23 -24 40 -8 18 16 18 17 -6 42 -24 25
-25 28 -11 66 18 52 18 70 0 105 -12 23 -22 30 -46 30 -21 0 -37 8 -51 25 -23
29 -67 33 -113 8z m97 -55 c3 -20 8 -23 41 -21 39 3 43 -3 37 -67 -3 -41 -10
-42 -46 -10 -39 34 -52 37 -61 13 -4 -11 4 -25 25 -44 36 -32 39 -44 16 -53
-67 -26 -164 37 -164 106 0 47 57 98 108 98 34 0 41 -3 44 -22z"/>
<path d="M906 1075 c-3 -9 -6 -46 -6 -81 0 -56 4 -68 25 -89 13 -14 31 -25 40
-25 18 0 65 43 65 60 0 25 18 6 29 -31 14 -46 35 -59 59 -36 14 15 14 18 -2
36 -10 11 -25 46 -35 78 -13 44 -22 59 -38 61 -17 2 -21 -4 -27 -35 -7 -42
-40 -92 -53 -80 -4 5 -10 41 -13 80 -4 56 -9 73 -21 75 -9 2 -19 -4 -23 -13z"/>
<path d="M1795 1080 c-13 -22 -10 -136 4 -163 27 -50 76 -47 110 6 l20 31 10
-29 c17 -48 27 -60 47 -60 24 0 30 31 11 53 -8 9 -22 43 -31 75 -15 50 -20 58
-39 55 -16 -2 -23 -12 -28 -38 -6 -37 -28 -80 -42 -80 -15 0 -28 54 -25 104 2
40 0 51 -14 54 -9 2 -19 -2 -23 -8z"/>
<path d="M2025 1069 c-14 -21 6 -58 56 -103 l52 -47 -32 -61 c-27 -53 -40 -98
-27 -98 15 0 36 14 36 23 0 7 30 63 66 126 46 79 64 119 58 129 -16 25 -28 17
-53 -33 l-23 -50 -58 63 c-61 65 -65 68 -75 51z"/>
<path d="M1150 1005 c0 -75 20 -125 50 -125 29 0 32 15 10 53 -14 24 -19 48
-18 83 3 44 1 49 -19 52 -22 3 -23 0 -23 -63z"/>
<path d="M1322 683 c-2 -45 1 -53 16 -53 11 0 13 3 5 8 -6 4 -13 28 -16 52
l-4 45 -1 -52z"/>
<path d="M1750 714 c0 -8 -5 -12 -10 -9 -15 9 -40 -13 -40 -35 0 -25 25 -43
50 -35 16 5 20 15 20 51 0 24 -4 44 -10 44 -5 0 -10 -7 -10 -16z m-2 -46 c-2
-13 -7 -23 -13 -23 -5 0 -11 10 -13 23 -2 15 2 22 13 22 11 0 15 -7 13 -22z"/>
<path d="M878 679 c-2 -22 0 -43 4 -45 4 -3 8 4 8 15 0 15 6 21 21 21 12 0 17
4 14 11 -4 6 -13 8 -21 5 -8 -3 -14 1 -14 9 0 7 12 16 28 18 26 4 26 4 -4 6
-30 1 -32 -1 -36 -40z"/>
<path d="M1120 676 c0 -38 3 -46 18 -46 32 0 54 24 50 55 -3 26 -8 30 -35 33
-33 3 -33 3 -33 -42z m55 14 c8 -26 -1 -40 -26 -40 -14 0 -19 7 -19 30 0 23 5
30 19 30 11 0 22 -9 26 -20z"/>
<path d="M1460 675 c0 -25 5 -45 10 -45 6 0 10 15 10 33 l0 32 19 -28 c26 -40
33 -38 36 11 4 46 -11 59 -17 15 l-4 -28 -14 28 c-21 43 -40 34 -40 -18z"/>
<path d="M952 698 c-29 -29 3 -82 36 -61 23 14 26 38 7 57 -20 19 -27 20 -43
4z m36 -30 c-2 -13 -7 -23 -13 -23 -5 0 -11 10 -13 23 -2 15 2 22 13 22 11 0
15 -7 13 -22z"/>
<path d="M1038 702 c-13 -2 -18 -13 -18 -38 0 -19 5 -34 10 -34 6 0 10 13 10
29 0 16 6 31 13 34 17 6 5 14 -15 9z"/>
<path d="M1217 703 c-14 -13 -6 -21 15 -15 14 3 19 2 14 -6 -4 -7 -14 -12 -22
-12 -8 0 -14 -9 -14 -19 0 -15 7 -19 28 -19 26 1 28 4 24 32 -6 37 -28 57 -45
39z"/>
<path d="M1565 693 c-19 -19 -16 -42 7 -57 13 -8 21 -7 30 2 11 11 10 12 -3 7
-10 -4 -20 -2 -24 4 -3 7 2 11 14 11 14 0 21 6 21 19 0 26 -26 34 -45 14z"/>
<path d="M1640 696 c-28 -35 13 -88 44 -56 8 9 6 11 -11 6 -12 -4 -24 -2 -28
4 -4 6 4 10 19 10 28 0 34 18 14 38 -16 16 -23 15 -38 -2z"/>
<path d="M1790 696 c-9 -12 -7 -17 9 -28 28 -17 27 -31 -1 -23 -18 6 -20 4
-12 -5 7 -6 20 -10 30 -8 23 4 32 38 10 38 -8 0 -18 5 -22 12 -5 8 0 9 14 6
25 -7 30 7 6 16 -21 8 -20 8 -34 -8z"/>
<path d="M1280 665 c0 -19 5 -35 10 -35 6 0 10 16 10 35 0 19 -4 35 -10 35 -5
0 -10 -16 -10 -35z"/>
<path d="M1355 683 c18 -42 17 -61 -2 -66 -15 -4 -15 -5 4 -6 14 -1 24 7 31
27 5 15 13 35 17 45 4 9 3 17 -3 17 -5 0 -13 -10 -16 -22 l-7 -23 -9 23 c-5
12 -12 22 -16 22 -3 0 -3 -8 1 -17z"/>
</g>
</svg>
